# xmcd
#
# Track frame offsets: 
#        150
#        33335
#        55458
#        76603
#        102766
#        125073
#        143455
#        163517
#        187808
#        204636
#        225972
#        240785
#        259967
#        279847
#        297403
#        316919
#
# Disc length: 4488 seconds
#
# Revision: 1
# Processed by: cddbd v1.5.2PL0 Copyright (c) Steve Scherf et al.
# Submitted via: ExactAudioCopy v1.0b3
#
DISCID=cb118610
DTITLE=Various Artist - Margarita Caliente 14
DYEAR=2003
DGENRE=Salsa
TTITLE0=Mercadonegro - Tributo a Eddie Palmieri
TTITLE1=Susie Hansen - La salsa nuca se acaba
TTITLE2=The Spanish Harlem Orchestra - La banda
TTITLE3=Llego la Navidad
TTITLE4=Fruko y sus tesos - Tabaco y ron
TTITLE5=Croma Latina - Quella carezza della sera - Caricia (remix)
TTITLE6=Orquesta La Sabrosura - La pared
TTITLE7=Croma Latina - Figli delle stelle
TTITLE8=Orquesta los Tupamaros - Sinverguenza
TTITLE9=Rodolfo Guerra y su Sincopa Latina - Demasiado Corazon
TTITLE10=Orquesta los Tupamaros - Dame un chanche
TTITLE11=Susie Hansen - Tambo
TTITLE12=Jerry Galante - Solo tu carino
TTITLE13=Orquesta los Tupamaros - En efectivo
TTITLE14=JB y su Trabuco - Yo tengo un amigo
TTITLE15=La Sonora Carruseles - Micalela (remix)
EXTD=YEAR: 2003
EXTT0=
EXTT1=
EXTT2=
EXTT3=
EXTT4=
EXTT5=
EXTT6=
EXTT7=
EXTT8=
EXTT9=
EXTT10=
EXTT11=
EXTT12=
EXTT13=
EXTT14=
EXTT15=
PLAYORDER=
